# Blender v2.72 (sub 0) OBJ File: ''
# www.blender.org
mtllib thing.mtl
o Cube
v 0.160733 -2.546297 0.637504
v -0.947115 0.527746 3.300177
v -3.123331 0.884213 1.110633
v -3.001950 -0.932810 -0.962121
v 2.131688 -0.418096 -1.112705
v 2.365008 0.353185 1.019007
v -1.152376 3.012414 -0.639576
v -1.030996 1.195392 -2.712330
v 0.876818 2.006562 3.138529
v -2.955459 2.450309 2.089571
v -0.562443 4.239188 2.726214
v -0.984505 4.578511 0.339361
vn -0.607200 -0.614800 0.503400
vn 0.662400 0.582100 -0.471500
vn 0.170400 -0.932400 0.318700
vn -0.812200 0.414300 -0.410800
vn 0.044000 -0.658600 -0.751200
vn -0.807800 0.372300 -0.457000
vn -0.479700 0.655400 0.583400
vn 0.984800 0.003000 -0.173700
vn -0.844400 -0.530700 0.073900
vn 0.472100 -0.503100 0.723900
vn -0.580700 -0.642400 0.500100
vn 0.557300 0.759400 -0.335800
vn 0.773800 -0.231800 0.589500
vn -0.282600 -0.486500 0.826700
vn 0.638600 0.756400 -0.141600
vn -0.114800 0.692300 0.712400
vn 0.822900 0.472100 -0.316300
usemtl Material
s off
f 2//1 3//1 4//1
f 8//2 7//2 6//2
f 5//3 6//3 2//3
f 7//4 8//4 4//4
f 1//5 4//5 8//5
f 3//6 10//6 12//6
f 3//7 2//7 9//7
f 7//8 12//8 11//8
f 9//9 11//9 12//9
f 2//10 6//10 9//10
f 1//11 2//11 4//11
f 5//12 8//12 6//12
f 1//13 5//13 2//13
f 3//4 7//4 4//4
f 5//5 1//5 8//5
f 7//6 3//6 12//6
f 10//14 3//14 9//14
f 6//15 7//15 9//15
f 10//16 9//16 12//16
f 7//17 11//17 9//17
